<svg id="visual" viewBox="0 0 900 600" width="900" height="600" xmlns="http://www.w3.org/2000/svg" xmlns:xlink="http://www.w3.org/1999/xlink" version="1.1"><rect x="0" y="0" width="900" height="600" fill="#fff"></rect><defs><linearGradient id="grad1_0" x1="33.3%" y1="100%" x2="100%" y2="0%"><stop offset="20%" stop-color="#ffffff" stop-opacity="1"></stop><stop offset="80%" stop-color="#ffffff" stop-opacity="1"></stop></linearGradient></defs><defs><linearGradient id="grad2_0" x1="0%" y1="100%" x2="66.7%" y2="0%"><stop offset="20%" stop-color="#ffffff" stop-opacity="1"></stop><stop offset="80%" stop-color="#ffffff" stop-opacity="1"></stop></linearGradient></defs><g transform="translate(900, 600)"><path d="M-486.7 0C-480.1 -64 -473.5 -128.1 -449.7 -186.3C-425.9 -244.4 -384.9 -296.7 -337.3 -337.3C-289.6 -377.8 -235.3 -406.7 -177.9 -429.6C-120.6 -452.6 -60.3 -469.7 0 -486.7L0 0Z" fill="#B6CFA7"></path></g><g transform="translate(0, 0)"><path d="M486.7 0C460.6 56.5 434.5 113 413 171.1C391.4 229.1 374.4 288.6 338 338C301.6 387.4 245.8 426.6 186.3 449.7C126.7 472.8 63.4 479.8 0 486.7L0 0Z" fill="#B6CFA7"></path></g></svg>