<svg id="visual" viewBox="0 0 900 600" width="900" height="600" xmlns="http://www.w3.org/2000/svg" xmlns:xlink="http://www.w3.org/1999/xlink" version="1.1"><rect x="0" y="0" width="900" height="600" fill="#fff"></rect><g transform="translate(56.661076446940456 16.416518831005703)"><path d="M153.6 -227.7C204.3 -174.5 254.3 -136.7 300.9 -77.8C347.5 -19 390.6 61 366.9 114.7C343.2 168.4 252.7 195.8 180.4 235.2C108.2 274.5 54.1 325.8 -10.3 339.9C-74.6 354.1 -149.3 331.2 -232 295.2C-314.8 259.3 -405.6 210.3 -451.5 131.9C-497.4 53.5 -498.4 -54.4 -456.3 -137.2C-414.2 -220.1 -329.1 -277.9 -245.8 -320.5C-162.6 -363.2 -81.3 -390.6 -14.9 -370C51.4 -349.5 102.9 -280.9 153.6 -227.7" fill="#B6CFA7"></path></g></svg>