<!--?xml version="1.0" standalone="no"?-->
              <svg id="sw-js-blob-svg" viewBox="0 0 100 100" xmlns="http://www.w3.org/2000/svg" version="1.1">
                    <defs> 
                        <linearGradient id="sw-gradient" x1="0" x2="1" y1="1" y2="0">
                            <stop id="stop1" stop-color="rgba(182, 207, 167, 1)" offset="0%"></stop>
                            <stop id="stop2" stop-color="rgba(182, 207, 167, 1)" offset="100%"></stop>
                        </linearGradient>
                    </defs>
                <path fill="url(#sw-gradient)" d="M20.2,-29.7C26.2,-27.5,31.3,-22,33.7,-15.7C36,-9.4,35.5,-2.2,33.9,4.4C32.2,11,29.4,17.1,25.2,21.8C21,26.4,15.4,29.8,8.7,33.7C2,37.6,-5.8,42,-11.7,40.1C-17.5,38.2,-21.3,30,-26.9,23.4C-32.5,16.8,-39.8,11.8,-39.8,6.2C-39.9,0.6,-32.7,-5.5,-29.3,-13.5C-25.9,-21.6,-26.3,-31.6,-22.1,-34.7C-17.8,-37.8,-8.9,-34,-0.9,-32.5C7,-31.1,14.1,-32,20.2,-29.7Z" width="100%" height="100%" transform="translate(50 50)" style="transition: all 0.3s ease 0s;" stroke-width="0" stroke="url(#sw-gradient)"></path>
              </svg>